<?xml version="1.0" encoding="UTF-8"?>
<svg id="Layer_1" data-name="Layer 1" xmlns="http://www.w3.org/2000/svg" viewBox="0 0 18 18">
  <defs>
    <style>
      .cls-1 {
        stroke: #222;
      }

      .cls-1, .cls-2 {
        fill: none;
        stroke-linecap: round;
        stroke-linejoin: round;
        stroke-width: .5px;
      }

      .cls-2 {
        stroke: #74a333;
      }
    </style>
  </defs>
  <path class="cls-1" d="M9.01,5c.97-.62,1.91-.67,1.91-.67l1.65-1.65"/>
  <path class="cls-1" d="M15.6,4.6l-2.2,2.2v.79c0,.51-.14,1-.4,1.43"/>
  <path class="cls-1" d="M8.99,13c-.97,.62-1.91,.67-1.91,.67l-1.65,1.65"/>
  <path class="cls-1" d="M2.4,13.4l2.2-2.2v-.79c0-.51,.14-1,.4-1.43"/>
  <path class="cls-1" d="M7.51,11.64l-1.95-1.95c-1.16-1.16-1.24-2.61-1.24-2.61l-1.93-1.93"/>
  <path class="cls-1" d="M4.87,2.67l1.93,1.93h.79c.73,0,1.43,.29,1.94,.81l1.01,1.01"/>
  <g>
    <path class="cls-2" d="M9.28,11.75l-2.91-2.91c-.21-.21-.21-.56,0-.78l.05-.05c.21-.21,.56-.21,.78,0"/>
    <path class="cls-2" d="M9.28,10.1l-2.36-2.36c-.21-.21-.21-.56,0-.78l.05-.05c.21-.21,.56-.21,.78,0l2.36,2.36"/>
    <path class="cls-2" d="M8.01,7.19c-.21-.21-.21-.56,0-.78l.05-.05c.21-.21,.56-.21,.78,0l2.09,2.09"/>
    <path class="cls-2" d="M9.66,7.19c-.21-.21-.21-.56,0-.78l.05-.05c.21-.21,.56-.21,.78,0l1.95,1.95c1.16,1.16,1.24,2.61,1.24,2.61l1.93,1.93"/>
    <path class="cls-2" d="M13.13,15.33l-1.93-1.93h-.79c-.73,0-1.43-.29-1.94-.81l-1.01-1.01c-.21-.21-.21-.56,0-.78l.05-.05c.21-.21,.56-.21,.78,0"/>
  </g>
</svg>